<?xml version="1.0" encoding="iso-8859-1"?>
<!-- Generator: Adobe Illustrator 21.0.2, SVG Export Plug-In . SVG Version: 6.00 Build 0)  -->
<svg version="1.1" xmlns="http://www.w3.org/2000/svg" xmlns:xlink="http://www.w3.org/1999/xlink" x="0px" y="0px"
	 viewBox="0 0 17.973 19.131" style="enable-background:new 0 0 17.973 19.131;" xml:space="preserve">
<g id="Visual_x5F_Syntax_x5F_Design_x5F_Inc">
	<path d="M8.724,2.823C9.275,1.885,9.806,0.936,10.358,0c0.532,0.945,1.078,1.882,1.617,2.823c-0.346-0.03-0.695-0.007-1.041-0.014
		C10.198,2.818,9.46,2.791,8.724,2.823z"/>
	<path d="M10.534,0.05c2.48,1.443,4.959,2.889,7.439,4.333c-0.42,0.787-0.875,1.554-1.307,2.334
		c-0.377,0.673-0.754,1.345-1.134,2.016c-0.566-0.983-1.108-1.98-1.688-2.955c-0.763,0.03-1.527,0.005-2.29,0.013
		c-1.32-0.002-2.64,0.001-3.96,0C7.374,5.791,7.152,5.777,6.931,5.799C6.35,4.854,5.825,3.874,5.242,2.929
		C5.39,2.942,5.539,2.944,5.687,2.942c2.169-0.003,4.337,0.004,6.505-0.001C11.639,1.977,11.077,1.019,10.534,0.05z"/>
	<path d="M0.007,2.937c1.676,0.005,3.353,0.009,5.03-0.002C4.468,3.921,3.902,4.909,3.337,5.897c0.212,0.324,0.39,0.669,0.59,1.001
		C4.606,8.106,5.308,9.3,6.002,10.499c0.273,0.467,0.527,0.945,0.811,1.403c-0.567,0.949-1.103,1.916-1.662,2.868
		c-1.142-2.012-2.331-3.997-3.473-6.008c-0.496,0.858-0.99,1.716-1.483,2.575c-0.06,0.103-0.1,0.221-0.194,0.3
		c0.023-0.321,0.009-0.643,0.013-0.965C0.009,8.095,0.022,5.516,0.007,2.937z"/>
	<path d="M5.141,2.998c0.562,0.948,1.108,1.906,1.667,2.856c-0.561,0.971-1.11,1.95-1.667,2.923
		C4.794,8.145,4.424,7.526,4.072,6.896C3.874,6.564,3.695,6.219,3.48,5.895C4.037,4.931,4.594,3.968,5.141,2.998z"/>
	<path d="M6.928,5.903c1.103,0.005,2.206-0.005,3.309,0.005C9.724,6.827,9.198,7.739,8.679,8.654
		c-0.042,0.061-0.06,0.148-0.132,0.181C7.447,8.83,6.346,8.825,5.245,8.837C5.824,7.869,6.353,6.873,6.928,5.903z"/>
	<path d="M10.45,5.904c1.111,0.003,2.221-0.008,3.331,0.006c0.493,0.862,0.982,1.726,1.475,2.588
		c0.062,0.113,0.132,0.223,0.182,0.343c-0.848-0.025-1.698-0.003-2.547-0.01c-0.254,0.008-0.509-0.018-0.762,0.013
		C11.564,7.867,11.019,6.879,10.45,5.904z"/>
	<path d="M8.685,8.905c0.556-0.978,1.108-1.958,1.672-2.931c0.538,0.971,1.09,1.935,1.642,2.898c0.004,0.064-0.045,0.115-0.071,0.17
		c-0.537,0.905-1.048,1.827-1.582,2.733C9.799,10.815,9.252,9.853,8.685,8.905z"/>
	<path d="M5.248,8.953C6.359,8.964,7.47,8.95,8.581,8.96c0.553,0.959,1.111,1.916,1.656,2.881c-1.102-0.014-2.205-0.002-3.307-0.005
		c-0.078-0.075-0.117-0.18-0.174-0.271C6.258,10.692,5.762,9.817,5.248,8.953z"/>
	<path d="M12.135,8.958c1.09,0,2.181-0.002,3.271,0.001c-0.43,0.744-0.842,1.498-1.269,2.244c-0.446,0.82-0.936,1.615-1.391,2.429
		c-0.258,0.45-0.513,0.902-0.779,1.347c1.108-0.018,2.217-0.006,3.325-0.007c-1.61,0.896-3.236,1.765-4.851,2.654
		c-0.917,0.499-1.839,0.991-2.749,1.504c-0.801-1.386-1.612-2.768-2.408-4.157c1.12-0.006,2.239-0.005,3.359-0.001
		c0.484-0.81,0.942-1.636,1.419-2.45C10.78,11.349,11.409,10.125,12.135,8.958z"/>
	<path d="M0.496,11.066c0.397-0.68,0.779-1.368,1.183-2.044c0.454,0.796,0.916,1.587,1.371,2.383
		c0.082,0.148,0.165,0.296,0.265,0.432c-1.091-0.005-2.182-0.003-3.273-0.001C0.212,11.59,0.346,11.323,0.496,11.066z"/>
	<path d="M6.936,11.967c1.1-0.006,2.201-0.005,3.302,0.001c-0.549,0.96-1.114,1.912-1.65,2.88c-1.115,0.002-2.231-0.001-3.347-0.001
		C5.838,13.906,6.335,12.902,6.936,11.967z"/>
	<path d="M13.812,12.037c0.51,0.834,0.977,1.694,1.474,2.537c0.054,0.092,0.105,0.187,0.15,0.284
		c-0.992-0.03-1.984-0.002-2.977-0.013c-0.086-0.002-0.171,0.007-0.256,0.015c0.053-0.146,0.145-0.273,0.22-0.408
		C12.884,13.646,13.347,12.841,13.812,12.037z"/>
</g>
<g id="Layer_1">
</g>
</svg>
